<mxfile host="app.diagrams.net" modified="2023-02-17T06:18:55.991Z" agent="5.0 (Windows NT 10.0; Win64; x64) AppleWebKit/537.36 (KHTML, like Gecko) Chrome/109.0.0.0 Safari/537.36 Edg/109.0.1518.70" etag="AwUhzaui4E_c1wuujLSL" version="20.8.19" type="github">
  <diagram id="6a731a19-8d31-9384-78a2-239565b7b9f0" name="Page-1">
    <mxGraphModel dx="838" dy="453" grid="1" gridSize="10" guides="1" tooltips="1" connect="1" arrows="1" fold="1" page="1" pageScale="1" pageWidth="1169" pageHeight="827" background="none" math="0" shadow="0">
      <root>
        <mxCell id="0" />
        <mxCell id="1" parent="0" />
        <mxCell id="9Scd5nWtSQVwmLjj404M-1544" value="前端" style="shape=umlLifeline;perimeter=lifelinePerimeter;whiteSpace=wrap;html=1;container=0;dropTarget=0;collapsible=0;recursiveResize=0;outlineConnect=0;portConstraint=eastwest;newEdgeStyle={&quot;edgeStyle&quot;:&quot;elbowEdgeStyle&quot;,&quot;elbow&quot;:&quot;vertical&quot;,&quot;curved&quot;:0,&quot;rounded&quot;:0};" vertex="1" parent="1">
          <mxGeometry x="150" y="160" width="100" height="420" as="geometry" />
        </mxCell>
        <mxCell id="9Scd5nWtSQVwmLjj404M-1548" value="后端" style="shape=umlLifeline;perimeter=lifelinePerimeter;whiteSpace=wrap;html=1;container=0;dropTarget=0;collapsible=0;recursiveResize=0;outlineConnect=0;portConstraint=eastwest;newEdgeStyle={&quot;edgeStyle&quot;:&quot;elbowEdgeStyle&quot;,&quot;elbow&quot;:&quot;vertical&quot;,&quot;curved&quot;:0,&quot;rounded&quot;:0};" vertex="1" parent="1">
          <mxGeometry x="500" y="160" width="100" height="420" as="geometry" />
        </mxCell>
        <mxCell id="9Scd5nWtSQVwmLjj404M-1554" value="店铺入驻页面填写入驻信息，点击注册" style="rounded=0;whiteSpace=wrap;html=1;" vertex="1" parent="1">
          <mxGeometry x="140" y="260" width="120" height="90" as="geometry" />
        </mxCell>
        <mxCell id="9Scd5nWtSQVwmLjj404M-1555" value="1.校验参数&lt;br&gt;2.查询数据库店铺名是否被注册&lt;br&gt;3.查询管理员是否是否已经绑定店铺&lt;br&gt;4.调用百度AI审核是否有敏感信息&lt;br&gt;5.保存入驻信息到数据库&lt;br&gt;6.保存管理员信息到数据库&lt;br&gt;7.更新shop、employee表的外键" style="rounded=0;whiteSpace=wrap;html=1;align=left;" vertex="1" parent="1">
          <mxGeometry x="445" y="230" width="210" height="120" as="geometry" />
        </mxCell>
        <mxCell id="9Scd5nWtSQVwmLjj404M-1556" value="" style="endArrow=classic;html=1;rounded=0;exitX=1;exitY=0.25;exitDx=0;exitDy=0;" edge="1" parent="1" source="9Scd5nWtSQVwmLjj404M-1554">
          <mxGeometry width="50" height="50" relative="1" as="geometry">
            <mxPoint x="330" y="300" as="sourcePoint" />
            <mxPoint x="440" y="283" as="targetPoint" />
          </mxGeometry>
        </mxCell>
        <mxCell id="9Scd5nWtSQVwmLjj404M-1559" value="" style="endArrow=classic;html=1;rounded=0;exitX=0;exitY=0.75;exitDx=0;exitDy=0;entryX=1;entryY=0.665;entryDx=0;entryDy=0;entryPerimeter=0;" edge="1" parent="1" source="9Scd5nWtSQVwmLjj404M-1555" target="9Scd5nWtSQVwmLjj404M-1554">
          <mxGeometry width="50" height="50" relative="1" as="geometry">
            <mxPoint x="290" y="370" as="sourcePoint" />
            <mxPoint x="340" y="320" as="targetPoint" />
          </mxGeometry>
        </mxCell>
        <mxCell id="9Scd5nWtSQVwmLjj404M-1561" style="edgeStyle=orthogonalEdgeStyle;rounded=0;orthogonalLoop=1;jettySize=auto;html=1;entryX=0;entryY=0.5;entryDx=0;entryDy=0;" edge="1" parent="1" source="9Scd5nWtSQVwmLjj404M-1560" target="9Scd5nWtSQVwmLjj404M-1554">
          <mxGeometry relative="1" as="geometry" />
        </mxCell>
        <mxCell id="9Scd5nWtSQVwmLjj404M-1560" value="Actor" style="shape=umlActor;verticalLabelPosition=bottom;verticalAlign=top;html=1;outlineConnect=0;" vertex="1" parent="1">
          <mxGeometry x="30" y="275" width="30" height="60" as="geometry" />
        </mxCell>
        <mxCell id="9Scd5nWtSQVwmLjj404M-1568" value="商家" style="text;html=1;align=center;verticalAlign=middle;resizable=0;points=[];autosize=1;strokeColor=none;fillColor=none;" vertex="1" parent="1">
          <mxGeometry x="20" y="240" width="50" height="30" as="geometry" />
        </mxCell>
        <mxCell id="9Scd5nWtSQVwmLjj404M-1569" value="登录后台管理系统对入驻店铺人工审核，&lt;br&gt;点击通过或驳回" style="rounded=0;whiteSpace=wrap;html=1;" vertex="1" parent="1">
          <mxGeometry x="140" y="440" width="120" height="60" as="geometry" />
        </mxCell>
        <mxCell id="9Scd5nWtSQVwmLjj404M-1572" style="edgeStyle=orthogonalEdgeStyle;rounded=0;orthogonalLoop=1;jettySize=auto;html=1;entryX=0;entryY=0.5;entryDx=0;entryDy=0;" edge="1" parent="1" source="9Scd5nWtSQVwmLjj404M-1570" target="9Scd5nWtSQVwmLjj404M-1569">
          <mxGeometry relative="1" as="geometry" />
        </mxCell>
        <mxCell id="9Scd5nWtSQVwmLjj404M-1570" value="Actor" style="shape=umlActor;verticalLabelPosition=bottom;verticalAlign=top;html=1;outlineConnect=0;" vertex="1" parent="1">
          <mxGeometry x="30" y="440" width="30" height="60" as="geometry" />
        </mxCell>
        <mxCell id="9Scd5nWtSQVwmLjj404M-1571" value="管理员" style="text;html=1;align=center;verticalAlign=middle;resizable=0;points=[];autosize=1;strokeColor=none;fillColor=none;" vertex="1" parent="1">
          <mxGeometry x="15" y="400" width="60" height="30" as="geometry" />
        </mxCell>
        <mxCell id="9Scd5nWtSQVwmLjj404M-1573" value="1.通过发送激活邮件，内容包含激活链接&lt;br&gt;2.保存" style="rounded=0;whiteSpace=wrap;html=1;" vertex="1" parent="1">
          <mxGeometry x="490" y="440" width="120" height="60" as="geometry" />
        </mxCell>
        <mxCell id="9Scd5nWtSQVwmLjj404M-1574" value="" style="endArrow=classic;html=1;rounded=0;" edge="1" parent="1">
          <mxGeometry width="50" height="50" relative="1" as="geometry">
            <mxPoint x="300" y="470" as="sourcePoint" />
            <mxPoint x="330" y="420" as="targetPoint" />
          </mxGeometry>
        </mxCell>
      </root>
    </mxGraphModel>
  </diagram>
</mxfile>
